<svg version="1.1" xmlns="http://www.w3.org/2000/svg" xmlns:xlink="http://www.w3.org/1999/xlink" width="104.78095" height="162.50761" viewBox="0,0,104.78095,162.50761"><defs><linearGradient x1="255.33988" y1="87.54034" x2="244.24842" y2="138.66623" gradientUnits="userSpaceOnUse" id="color-1"><stop offset="0" stop-color="#279200"/><stop offset="1" stop-color="#778800"/></linearGradient></defs><g transform="translate(-187.79972,-84.06255)"><g data-paper-data="{&quot;isPaintingLayer&quot;:true}" fill-rule="nonzero" stroke-linecap="butt" stroke-linejoin="miter" stroke-miterlimit="10" stroke-dasharray="" stroke-dashoffset="0" style="mix-blend-mode: normal"><g data-paper-data="{&quot;index&quot;:null}"><path d="M233.69955,136.37772l11.09146,-51.12589l21.09775,4.57703l-11.09146,51.12589z" fill="url(#color-1)" stroke="#2e4600" stroke-width="2"/><path d="M239.8116,125.95321l8.20441,-37.81806l15.6061,3.38565l-8.20441,37.81806z" fill-opacity="0.16671" fill="#b5b5b5" stroke="none" stroke-width="0"/></g><g><path d="M193.40064,133.57681c-0.26975,-3.14362 -0.16237,-6.15228 2.54853,-8.69028c1.09305,-1.02335 2.74848,-1.18909 4.12272,-1.78364c3.31048,-1.09807 6.78646,-2.06705 9.85831,-3.78924c2.12424,-1.19092 7.10194,-5.42798 9.48573,-5.83411c1.761,-0.30003 3.47648,0.84552 5.24378,1.10595c4.44241,0.65465 9.57751,0.47369 13.83743,2.0974c1.36543,0.52045 2.42028,1.63978 3.66492,2.40538c8.29942,5.10516 16.29528,10.69364 24.31297,16.24621c4.79905,3.32353 10.5917,6.85353 14.79613,10.85852c2.40042,2.28654 4.00644,5.28334 6.05345,7.89103c2.08845,7.00332 4.73336,15.46183 4.43881,22.89441c-0.34283,8.651 -4.55192,17.06787 -9.29424,24.02315c-3.767,5.52483 -7.13365,10.89215 -13.57172,13.65283c-4.38641,1.88091 -9.30354,2.22929 -13.95788,2.96387c-5.52958,0.6893 -10.16919,2.67413 -15.52182,3.82536c-8.6041,1.85055 -19.07144,-0.48469 -25.94213,-6.00797c-3.37265,-2.71124 -7.05198,-6.39975 -8.19929,-10.70578c-1.08053,-4.0554 0.59816,-9.77678 2.06254,-13.46806c0.91085,-2.29602 1.28329,-5.01163 3.26324,-6.41043c-1.15017,0.39859 -2.7269,-0.04552 -3.7713,-0.67404c-4.16228,-2.5049 -7.34824,-7.63127 -9.98252,-11.59687c-3.0667,-4.61657 -6.7006,-10.65006 -7.84323,-16.12655c-1.5496,-7.42707 -0.0042,-16.60133 4.39557,-22.87714z" fill="#c72f00" stroke="none" stroke-width="0"/><path d="M200.7228,134.33124c-0.23404,-2.72746 -0.14088,-5.33783 2.21115,-7.53985c0.94835,-0.88788 2.38463,-1.03168 3.57695,-1.54752c2.87223,-0.95271 5.88806,-1.79341 8.55325,-3.28761c1.84303,-1.03326 6.16177,-4.70941 8.22999,-5.06178c1.52788,-0.26031 3.01626,0.73359 4.5496,0.95954c3.85432,0.56799 8.30962,0.41098 12.00561,1.81974c1.18467,0.45155 2.09988,1.4227 3.17975,2.08695c7.20073,4.42933 14.13808,9.278 21.09438,14.09551c4.16374,2.88356 9.18955,5.94625 12.83739,9.42105c2.08265,1.98384 3.47606,4.58392 5.25208,6.8464c1.81198,6.07621 4.10675,13.41497 3.85119,19.86361c-0.29745,7.50577 -3.94933,14.8084 -8.06385,20.84292c-3.26832,4.79344 -6.18929,9.45023 -11.77507,11.84545c-3.80573,1.63191 -8.07192,1.93417 -12.11011,2.57151c-4.79756,0.59805 -8.82298,2.32012 -13.46701,3.31895c-7.46507,1.60557 -16.54673,-0.42053 -22.50787,-5.21262c-2.92617,-2.35232 -6.11843,-5.55254 -7.11385,-9.28853c-0.93749,-3.51854 0.51897,-8.48251 1.7895,-11.68514c0.79027,-1.99207 1.11341,-4.34818 2.83125,-5.56181c-0.99791,0.34582 -2.36591,-0.03949 -3.27205,-0.58481c-3.61127,-2.1733 -6.37547,-6.62103 -8.66102,-10.06166c-2.66073,-4.00542 -5.81356,-9.24019 -6.80493,-13.99169c-1.34446,-6.44386 -0.00364,-14.40362 3.81368,-19.84863z" fill="#dc5300" stroke="none" stroke-width="0"/><path d="M193.1953,133.94984c-0.26975,-3.14362 -0.16237,-6.15228 2.54853,-8.69028c1.09305,-1.02335 2.74848,-1.18909 4.12272,-1.78364c3.31048,-1.09807 6.78646,-2.06705 9.85831,-3.78924c2.12424,-1.19092 7.10194,-5.42798 9.48573,-5.83411c1.761,-0.30003 3.47648,0.84552 5.24378,1.10595c4.44241,0.65465 9.57751,0.47369 13.83743,2.0974c1.36543,0.52045 2.42028,1.63978 3.66492,2.40538c8.29942,5.10516 16.29528,10.69364 24.31297,16.24621c4.79905,3.32353 10.5917,6.85353 14.79613,10.85852c2.40042,2.28654 4.00644,5.28334 6.05345,7.89103c2.08845,7.00332 4.73336,15.46183 4.43881,22.89441c-0.34283,8.651 -4.55192,17.06787 -9.29424,24.02315c-3.767,5.52483 -7.13365,10.89215 -13.57172,13.65283c-4.38641,1.88091 -9.30354,2.22929 -13.95788,2.96387c-5.52958,0.6893 -10.16919,2.67413 -15.52182,3.82536c-8.6041,1.85055 -19.07144,-0.48469 -25.94213,-6.00797c-3.37265,-2.71124 -7.05198,-6.39975 -8.19929,-10.70578c-1.08053,-4.0554 0.59816,-9.77678 2.06254,-13.46806c0.91085,-2.29602 4.15107,-6.83727 3.64299,-6.89325c-0.82785,-0.09121 -3.50385,0.19826 -4.15105,-0.19122c-4.16228,-2.5049 -7.34824,-7.63127 -9.98252,-11.59687c-3.0667,-4.61657 -6.7006,-10.65006 -7.84323,-16.12655c-1.5496,-7.42707 -0.0042,-16.60133 4.39557,-22.87714z" fill="none" stroke="#660400" stroke-width="2"/></g><path d="M231.85952,238.233c-0.00113,-4.99043 -0.22648,-9.9577 -0.22648,-14.94773c0,0 0,-1.75 1.75,-1.75c1.75,0 1.75,1.75 1.75,1.75c0,5.59198 0.23024,11.16506 0.22648,16.75918c-0.00052,0.7693 0.0393,5.26567 -0.21955,5.47015c-1.23906,0.97882 -3.12836,0.44213 -4.70111,0.58288c-4.02118,0.35989 -9.80635,0.85674 -13.73287,-0.00596c-1.39913,-0.30741 -3.40278,-0.06481 -4.08905,-1.32223c-3.06312,-5.61241 6.55979,-4.66225 8.41282,-4.66304c3.56673,0.00173 7.30031,0.2652 10.83002,0.92671c-0.00051,-1.13693 -0.00022,-2.59778 -0.00026,-2.79997z" data-paper-data="{&quot;index&quot;:null}" fill="#000000" stroke="none" stroke-width="0.5"/><path d="M253.42548,238.73363c3.52972,-0.66151 7.26329,-0.92497 10.83002,-0.92671c1.85303,0.00078 11.47594,-0.94937 8.41282,4.66304c-0.68627,1.25742 -2.68992,1.01483 -4.08905,1.32223c-3.92652,0.8627 -9.71169,0.36585 -13.73287,0.00596c-1.57275,-0.14076 -3.46205,0.39593 -4.70111,-0.58289c-0.25885,-0.20449 -0.21903,-4.70084 -0.21955,-5.47015c-0.00376,-5.59412 0.22648,-11.1672 0.22648,-16.75918c0,0 0,-1.75 1.75,-1.75c1.75,0 1.75,1.75 1.75,1.75c0,4.99002 -0.22534,9.9573 -0.22648,14.94772c-0.00005,0.20219 0.00025,1.66304 -0.00026,2.79997z" fill="#000000" stroke="none" stroke-width="0.5"/><path d="M233.80497,159.81293c0,1.75 -1.75,1.75 -1.75,1.75l0.07586,-0.10195c-6.67526,2.38403 -16.66256,1.91666 -20.36999,-5.50942c-1.19455,-2.39272 -1.43709,-5.67544 -1.18511,-8.25275c0,0 0.19326,-1.7393 1.93256,-1.54604c0.04846,0.00538 0.09542,0.01197 0.14093,0.01969c0.56271,-0.11038 1.0748,0.0908 1.0748,0.0908c3.48955,1.38361 6.13544,3.33515 9.36372,5.20233c3.22546,1.86555 6.64974,3.32638 9.78539,5.33711l0.34902,0.16318c0,0 1.56525,0.78262 0.78262,2.34787c-0.0636,0.1272 -0.13236,0.23889 -0.20504,0.33676c0.00346,0.0524 0.00525,0.10652 0.00525,0.16243z" fill="#010102" stroke="none" stroke-width="0.5"/><path d="M248.59635,159.65142c-0.07268,-0.09787 -0.14144,-0.20956 -0.20504,-0.33676c-0.78262,-1.56525 0.78262,-2.34787 0.78262,-2.34787l0.34902,-0.16318c3.13565,-2.01073 6.55993,-3.47156 9.78539,-5.33711c3.22827,-1.86718 5.87416,-3.81873 9.36372,-5.20234c0,0 0.51208,-0.20118 1.0748,-0.0908c0.0455,-0.00771 0.09247,-0.0143 0.14092,-0.01969c1.7393,-0.19325 1.93256,1.54604 1.93256,1.54604c0.25198,2.57731 0.00944,5.86004 -1.18511,8.25275c-3.70743,7.42609 -13.69473,7.89345 -20.37,5.50942l0.07587,0.10195c0,0 -1.75,0 -1.75,-1.75c0,-0.05591 0.00179,-0.11003 0.00525,-0.16243z" data-paper-data="{&quot;index&quot;:null}" fill="#010102" stroke="none" stroke-width="0.5"/><path d="M272.93845,161.57924c1.38428,0.39541 2.13001,1.71116 2.53695,2.80982c0.22632,0.61103 -0.04886,1.24687 -0.28728,1.8809c0.13507,0.69897 0.25684,1.41118 0.35784,2.13147c0.00828,0.05193 0.01545,0.10413 0.0216,0.15652c0.6318,4.65305 0.37744,9.62599 -2.76346,13.52736c-2.33924,2.90561 -6.13247,5.25224 -10.73883,3.58346c-0.80097,-0.29017 -1.60353,-0.74102 -2.38829,-1.26977c-0.97796,-0.48553 -1.82309,-1.12389 -2.41962,-1.85145c-0.79935,-0.6625 -1.55196,-1.31271 -2.23183,-1.83966c-0.35851,-0.3278 -0.71702,-0.65559 -1.07553,-0.98338c-2.16344,1.5947 -4.77958,3.67597 -7.33788,4.16788c-0.8583,0.16503 -1.71336,-0.34978 -2.5406,-0.59197c-2.76637,-0.80988 -5.19738,-2.10725 -7.66579,-3.35282c-0.07612,0.02248 -0.15234,0.04493 -0.22865,0.06735c-0.47187,0.63419 -1.52641,0.63419 -1.52641,0.63419l-0.38805,-0.00344c-0.10533,0.00565 -0.21167,0.01233 -0.31896,0.01997c-2.13882,0.62752 -4.27831,1.29491 -6.22097,2.17785c-2.05883,0.95111 -3.83821,2.48027 -6.1877,3.01859c-4.49461,1.02982 -8.44173,-0.8638 -10.78812,-3.65088c-4.42765,-5.25925 -5.67265,-12.25323 -4.22161,-18.3612c0,0 0.13737,-0.56755 0.71091,-0.89241c0.18043,-0.38205 0.60742,-0.83414 1.61798,-0.83414c0.43499,0 0.76187,0.08376 1.00749,0.20965c0.55608,0.11551 0.92831,0.43273 0.92831,0.43273c2.35846,2.03761 5.72756,3.3387 8.90454,4.4795c10.08892,3.6228 22.27414,3.94974 33.15253,2.83417c3.10182,-0.31809 6.04897,-0.44217 9.06378,-1.10597c0.8686,-0.35728 1.73672,-0.71527 2.60379,-1.07476c1.11206,-1.21185 2.16818,-2.50362 3.64123,-3.22173c0.02553,-0.01245 0.05118,-0.02471 0.07693,-0.03681c0.52527,-1.04301 3.41126,-3.43076 4.70571,-3.061z" fill="#010102" stroke="none" stroke-width="0.5"/></g></g></svg>