<svg version="1.1" xmlns="http://www.w3.org/2000/svg" xmlns:xlink="http://www.w3.org/1999/xlink" width="115.90112" height="166.53081" viewBox="0,0,115.90112,166.53081"><defs><linearGradient x1="249.42989" y1="155.79204" x2="249.42989" y2="174.68262" gradientUnits="userSpaceOnUse" id="color-1"><stop offset="0" stop-color="#ff7614" stop-opacity="0.57258"/><stop offset="1" stop-color="#ff7614" stop-opacity="0.40323"/></linearGradient></defs><g transform="translate(-194.95982,-96.55699)"><g data-paper-data="{&quot;isPaintingLayer&quot;:true}" fill-rule="nonzero" stroke-linecap="butt" stroke-linejoin="miter" stroke-miterlimit="10" stroke-dasharray="" stroke-dashoffset="0" style="mix-blend-mode: normal"><path d="M239.30972,253.40932c-0.00113,-4.99043 -0.22648,-9.9577 -0.22648,-14.94773c0,0 0,-1.75 1.75,-1.75c1.75,0 1.75,1.75 1.75,1.75c0,5.59198 0.23024,11.16506 0.22648,16.75918c-0.00052,0.7693 0.0393,5.26567 -0.21955,5.47015c-1.23906,0.97882 -3.12836,0.44213 -4.70111,0.58288c-4.02118,0.35989 -9.80635,0.85674 -13.73287,-0.00596c-1.39913,-0.30741 -3.40278,-0.06481 -4.08905,-1.32223c-3.06312,-5.61241 6.55979,-4.66225 8.41282,-4.66304c3.56673,0.00173 7.30031,0.2652 10.83002,0.92671c-0.00051,-1.13693 -0.00022,-2.59778 -0.00026,-2.79997z" data-paper-data="{&quot;index&quot;:null}" fill="#000000" stroke="none" stroke-width="0.5"/><path d="M265.53136,257.5506c3.52972,-0.66151 7.26329,-0.92497 10.83002,-0.92671c1.85303,0.00078 11.47594,-0.94937 8.41282,4.66304c-0.68627,1.25742 -2.68992,1.01483 -4.08905,1.32223c-3.92652,0.8627 -9.71169,0.36585 -13.73287,0.00596c-1.57275,-0.14076 -3.46205,0.39593 -4.70111,-0.58289c-0.25885,-0.20449 -0.21903,-4.70084 -0.21955,-5.47015c-0.00376,-5.59412 0.22648,-11.1672 0.22648,-16.75918c0,0 0,-1.75 1.75,-1.75c1.75,0 1.75,1.75 1.75,1.75c0,4.99002 -0.22534,9.9573 -0.22648,14.94772c-0.00005,0.20219 0.00025,1.66304 -0.00026,2.79997z" fill="#000000" stroke="none" stroke-width="0.5"/><path d="M293.57163,250.85026c-2.09767,-1.59823 -3.94796,-8.37332 -1.74303,-10.32006c0.92407,-0.81586 2.38001,-1.50587 3.92378,-1.88307c-0.02195,-3.70383 -0.06934,-7.40808 0.00804,-11.11092c0,-0.07703 0.00349,-0.15324 0.0103,-0.22848c0.0349,-0.4868 0.14901,-0.80649 0.33774,-1.04473c0.43547,-0.73444 1.23622,-1.2268 2.15196,-1.2268c1.35513,0 2.45844,1.0782 2.49885,2.42354c0.00077,0.02539 0.00115,0.05088 0.00115,0.07646v0c0.07974,3.77777 -0.01214,7.55717 -0.00717,11.33585c0.11521,0.0587 0.22625,0.12263 0.33265,0.19196c7.44794,4.85285 1.48576,17.31162 -7.20088,12.09964z" data-paper-data="{&quot;index&quot;:null}" fill="#000000" stroke="none" stroke-width="0.5"/><path d="M205.59778,249.33431c-8.68664,5.21198 -14.64882,-7.24679 -7.20088,-12.09964c0.1064,-0.06933 0.21744,-0.13326 0.33265,-0.19196c0.00497,-3.77868 -0.08691,-7.55808 -0.00717,-11.33585v0c0,-0.02558 0.00038,-0.05107 0.00115,-0.07646c0.04041,-1.34534 1.14372,-2.42354 2.49885,-2.42354c0.91574,0 1.71649,0.49236 2.15196,1.2268c0.18873,0.23824 0.30284,0.55793 0.33774,1.04473c0.00681,0.07524 0.0103,0.15145 0.0103,0.22848c0.07738,3.70284 0.02999,7.40709 0.00804,11.11092c1.54377,0.3772 2.99971,1.06721 3.92378,1.88307c2.20493,1.94674 0.35464,8.72183 -1.74303,10.32006z" fill="#000000" stroke="none" stroke-width="0.5"/><path d="M223.41594,142.27996c0.98459,-0.23176 1.89461,-0.4208 2.45629,-0.54742c8.03786,-1.81196 16.27859,-1.59302 24.32602,-3.39742c5.62385,-0.66072 11.08272,-0.27134 16.77394,0.51378c2.43195,0.33549 4.07033,0.18692 6.37168,1.82986c2.51228,1.79351 4.12067,4.95091 5.84895,7.72228c1.48327,2.37848 2.87262,3.0808 4.57086,5.22959c1.67574,2.12034 2.92241,4.8691 3.93772,7.39825c3.17665,7.9131 3.44113,16.24299 2.85683,24.61506c-0.10659,1.52729 -0.05659,3.13618 -0.29786,4.63011c6.65092,0.87929 12.17095,2.564 17.06196,8.90321c0.86899,1.12629 1.9267,2.20123 2.36036,3.60688c0.94613,3.06668 -0.34094,8.63259 -0.73546,11.66138c-1.99356,11.75719 -11.78539,17.15166 -21.24408,19.28958c-8.19038,1.85126 -16.63495,4.5462 -25.10047,4.72466c-5.97622,0.12599 -12.17743,-0.89214 -18.18142,-1.14657c-12.75461,-0.54255 -29.58185,0.73702 -40.83931,-8.7473c-2.60027,-2.1907 -6.64004,-6.11736 -7.80038,-9.67395c-1.41624,-4.34091 0.47418,-7.72984 1.96016,-11.20439c0.95068,-2.22291 1.6171,-4.66827 2.91475,-6.62955c0.69786,-1.05476 1.32162,-2.30663 2.35273,-2.90695c1.06244,-0.61854 2.39412,-0.36906 3.59117,-0.55358c0.8862,0.17587 1.7665,0.45744 2.65857,0.52761c0.35301,0.02776 0.99856,0.16594 1.02562,-0.23786c0.04831,-0.72084 -0.7567,-1.26619 -0.87652,-1.9868c-0.77866,-4.68279 -0.84989,-9.45221 -0.64943,-14.10736c0.1624,-3.7712 -0.45562,-7.66861 0.20262,-11.38984c0.86348,-4.88146 2.1567,-9.99175 3.60896,-14.73627c-0.00347,-0.00399 -0.00694,-0.00796 -0.01041,-0.01197c-1.74232,-2.01079 -0.09496,-3.91152 -0.09496,-3.91152l1.9151,-2.20818c0.45414,-2.11449 0.75519,-3.92085 2.44186,-5.91022c0.91613,-1.08055 2.2753,-1.52046 3.41294,-2.28071c0,0 1.93065,-1.22408 3.1812,0.93557z" fill="#c40032" stroke="none" stroke-width="0.5"/><path d="M226.81718,141.57205c0.8504,-0.22531 1.6364,-0.4091 2.12153,-0.5322c6.94242,-1.76156 14.06007,-1.54871 21.01076,-3.30292c4.85741,-0.64235 9.57232,-0.2638 14.48791,0.49949c2.10051,0.32616 3.51561,0.18172 5.50332,1.77896c2.16989,1.74363 3.55908,4.81321 5.05183,7.5075c1.28112,2.31232 2.48113,2.99511 3.94792,5.08414c1.44736,2.06136 2.52413,4.73367 3.40107,7.19248c2.74372,7.69301 5.7522,14.3456 5.24753,22.48481c-0.09206,1.48481 2.73117,6.60741 2.52278,8.05979c5.74451,0.85484 4.95215,0.37986 9.17659,6.54276c0.75056,1.09497 1.66412,2.14001 2.03868,3.50656c0.81718,2.98138 -0.29447,8.39249 -0.63523,11.33704c-1.72187,11.43018 -10.17922,16.67461 -18.34884,18.75307c-7.07416,1.79977 -14.36786,4.41976 -21.67966,4.59325c-5.16175,0.12249 -10.51783,-0.86733 -15.70357,-1.11468c-11.01636,-0.52746 -25.5503,0.71652 -35.27355,-8.50401c-2.24589,-2.12977 -5.73511,-5.94721 -6.73731,-9.40489c-1.22323,-4.22018 0.40956,-7.51485 1.69302,-10.89276c0.82111,-2.16109 1.39671,-4.22523 2.51751,-6.13196c0.11377,-0.19355 0.12086,-1.02031 0.23286,-1.22196c0.61827,0.64954 1.21453,-0.0097 1.92178,0.02958c1.84219,0.10235 2.81347,-2.45636 2.97921,-2.48511c0.76542,0.17098 1.52575,0.44472 2.29624,0.51293c0.3049,0.02699 0.86247,0.16133 0.88584,-0.23124c0.04173,-0.70079 -0.65357,-1.23098 -0.75706,-1.93154c-0.67254,-4.55255 -0.73406,-9.18931 -0.56092,-13.71499c0.14026,-3.66631 -0.39353,-7.45532 0.175,-11.07305c0.7458,-4.74569 1.86277,-9.71385 3.11712,-14.32641c-0.00299,-0.00388 -0.006,-0.00774 -0.00899,-0.01164c-1.50487,-1.95487 -0.08202,-3.80273 -0.08202,-3.80273l1.6541,-2.14676c0.39225,-2.05568 0.65227,-3.8118 2.10907,-5.74584c0.79128,-1.0505 1.96521,-1.47817 2.94781,-2.21728c0,0 1.66753,-1.19003 2.74765,0.90955z" fill="#e42525" stroke="none" stroke-width="0.5"/><path d="M223.59419,142.67647c0.98459,-0.23176 1.89461,-0.4208 2.45629,-0.54742c8.03786,-1.81196 16.27859,-1.59302 24.32602,-3.39742c5.62385,-0.66072 11.08272,-0.27134 16.77394,0.51378c2.43195,0.33549 4.07033,0.18692 6.37168,1.82986c2.51228,1.79351 4.12067,4.95091 5.84895,7.72228c1.48327,2.37848 2.87262,3.0808 4.57086,5.22959c1.67574,2.12034 2.92241,4.8691 3.93772,7.39825c3.17665,7.9131 3.44113,16.24299 2.85683,24.61506c-0.10659,1.52729 -0.05659,3.13618 -0.29786,4.63011c6.65092,0.87929 12.17095,2.564 17.06196,8.90321c0.86899,1.12629 1.9267,2.20123 2.36036,3.60688c0.94613,3.06668 -0.34094,8.63259 -0.73546,11.66138c-1.99356,11.75719 -11.78539,17.15166 -21.24408,19.28958c-8.19038,1.85126 -16.63495,4.5462 -25.10047,4.72466c-5.97622,0.12599 -12.17743,-0.89214 -18.18142,-1.14657c-12.75461,-0.54255 -29.58185,0.73702 -40.83931,-8.7473c-2.60027,-2.1907 -6.64004,-6.11736 -7.80038,-9.67395c-1.41624,-4.34091 0.47418,-7.72984 1.96016,-11.20439c0.95068,-2.22291 1.6171,-4.66827 2.91475,-6.62955c0.69786,-1.05476 1.32162,-2.30663 2.35273,-2.90695c1.06244,-0.61854 2.39412,-0.36906 3.59117,-0.55358c0.8862,0.17587 1.7665,0.45744 2.65857,0.52761c0.35301,0.02776 0.99856,0.16594 1.02562,-0.23786c0.04831,-0.72084 -0.7567,-1.26619 -0.87652,-1.9868c-0.77866,-4.68279 -0.84989,-9.45221 -0.64943,-14.10736c0.1624,-3.7712 -0.45562,-7.66861 0.20262,-11.38984c0.86348,-4.88146 2.1567,-9.99175 3.60896,-14.73627c-0.00347,-0.00399 -0.00694,-0.00796 -0.01041,-0.01197c-1.74232,-2.01079 -0.09496,-3.91152 -0.09496,-3.91152l1.9151,-2.20818c0.45414,-2.11449 0.75519,-3.92085 2.44186,-5.91022c0.91613,-1.08055 2.2753,-1.52046 3.41294,-2.28071c0,0 1.93065,-1.22408 3.1812,0.93557z" fill="none" stroke="#4f001f" stroke-width="2"/><path d="M217.31237,171.68016l-0.26245,-0.10753l-0.2756,-0.04416l-1.07092,-0.51453l-0.77803,-0.68082l-0.00345,-0.03311l-0.02549,-0.01268l-0.33945,-1.08751l-0.10138,-1.07743l0.04894,-0.44448l-0.05322,-0.15996l0.10026,-0.26725l0.03188,-0.2895l0.11607,-0.10488l0.15393,-0.41033l0.00251,-0.00385l0.06569,-0.20123l0.05055,-0.33083l0.20997,-0.5597l0.12066,-0.53263l0.33818,-0.73126l0.01858,-0.1379l0.0745,-0.06338l0.04436,-0.09593l0.11194,-0.03702l0.5679,-0.48308l0.43514,-0.20529l0.23011,-0.03628l0.21693,-0.10234l1.00756,-0.15886l0.105,0.01461l0.10271,-0.03341l1.02024,-0.02418l0.1245,0.03454l0.12745,-0.02009l0.23092,0.03213l0.32965,-0.05198l0.18572,0.02585l0.02221,-0.0048l0.65681,-0.49406l0.27684,-0.10916l0.25678,-0.1674l2.64881,-0.82767l0.11886,-0.00139l0.11135,-0.05253l11.64294,-1.83578l0.029,0.00404l0.02771,-0.01193l3.70707,-0.44783l0.01084,0.00191l0.01045,-0.00434l2.69951,-0.28896l0.00361,0.00069l0.00349,-0.00143l2.47049,-0.25314l2.80635,-0.30605l0.02138,0.00403l0.02076,-0.00805l1.8039,-0.14775l0.05168,0.01118l0.05116,-0.01621l1.81824,-0.02896l9.18239,-1.44781l0.10501,0.01461l0.10271,-0.0334l0.91605,-0.02172l2.90915,-0.4587l0.01615,-0.01677l0.05372,0.00575l0.05208,-0.00822l0.42847,0.05962l0.42982,0.04597l0.04922,0.02068l0.05356,0.00745l0.01248,0.02029l0.12131,0.05096l0.06105,0.04861l0.07253,0.01461l0.44188,0.23343l0.76747,0.21605l0.03921,0.02444l0.04442,0.00159l0.82167,0.28047l0.09393,0.06544l0.10791,0.0189l0.83435,0.41515l0.08388,0.0753c4.83168,0.0945 14.51003,1.362 14.75974,7.7314c0.16167,4.12374 -4.8483,7.44683 -7.60466,7.88964c-4.90823,0.78851 -9.95656,1.79584 -14.93671,1.65777c-3.18223,-0.08822 -6.20361,-1.85133 -9.41064,-1.79872c-5.56853,0.09134 -10.26745,-0.02151 -15.68445,-1.17404c-4.74349,-1.00922 -9.06672,2.94091 -13.54847,2.12879c-0.40349,-0.07312 -2.7129,-0.88119 -4.49806,-2.00794z" fill="url(#color-1)" stroke="none" stroke-width="0.5"/><path d="M283.91057,168.59572c-2.17564,-0.50069 -3.54008,-2.73773 -5.13473,-4.30015c-0.83056,-0.81377 -1.54351,-1.76228 -2.11168,-2.77728c-0.53111,3.80878 -7.17032,7.44525 -10.58028,6.78856c-2.24546,-0.43243 -5.68259,-2.79071 -7.24437,-4.65619c-0.89025,-1.06338 -1.70308,-2.21952 -2.28278,-3.4795c-0.90757,3.73979 -5.60378,5.0634 -8.98964,5.77155c-4.56878,0.29135 -6.33887,0.40071 -9.23616,-3.45464c-0.52444,-0.69786 -1.38823,-1.59768 -1.80584,-2.44749c-0.39015,0.82488 -0.89026,1.60243 -1.4139,2.34842c-1.08595,1.54706 -3.65468,4.55468 -5.68972,5.07384c-5.02667,1.28234 -10.79381,-3.57936 -14.97307,-5.5891l-0.69261,-0.18272c0,0 -0.37701,-0.11575 -0.78558,-0.40503c-1.0779,-0.14053 -1.75414,-1.09105 -1.75414,-1.09105c-0.37678,-0.52965 -4.27114,-5.92105 -4.73567,-6.86079c-4.38028,-8.8613 -3.82608,-23.7741 4.81704,-29.86356c3.95131,-2.78387 8.97382,-3.02366 13.57682,-3.7568c5.99405,-0.95471 11.99591,-1.86523 18.04244,-2.42382c7.47326,-1.28127 16.26531,-2.09965 23.78307,-0.66631c4.97604,0.94873 10.07946,3.36063 14.50589,5.72617c3.276,1.75074 6.74543,2.97622 8.9569,6.12531c1.15058,1.63841 1.57031,3.68854 2.19594,5.59032c1.08315,3.29255 1.96847,4.13071 2.19672,7.72765c0.21704,3.42024 -0.72327,7.37965 -1.29622,10.73891c-0.60577,1.79693 -1.15495,3.61458 -1.62868,5.45074l-0.64384,1.81941c-0.876,2.87514 -2.21349,9.91258 -7.07591,8.79358z" fill="#ff8014" stroke="none" stroke-width="0.5"/><path d="M221.02001,169.42903c-0.24341,0 -0.47523,-0.0497 -0.68584,-0.1395c-0.97195,0.33392 -1.80251,0.15471 -1.55983,-1.50366c-0.39701,-0.26836 -0.75494,-0.54616 -1.0619,-0.82859c-1.6129,-1.48402 -0.12987,-3.22178 -1.76848,-3.92877l-0.67762,-0.16039c0,0 -0.36885,-0.10161 -0.76859,-0.35554c-1.05458,-0.12336 -1.71619,-0.95772 -1.71619,-0.95772c-0.36863,-0.46492 -4.17873,-5.19747 -4.63321,-6.02237c-2.64167,-4.79476 -3.0214,-17.06636 1.40076,-24.76076c2.75179,-4.78802 9.23542,-5.99332 12.47903,-8.04367c3.06358,-1.93655 10.41348,33.65945 10.41348,33.65945c0,0 0.84374,-34.32381 1.77829,-34.45736c5.86436,-0.83804 8.02594,6.31657 13.94165,5.82624c2.47939,-0.38139 11.18753,27.88642 11.18753,27.88642c0,0 1.98175,-34.52965 6.84272,-33.69812c4.86838,0.83279 10.73443,4.31346 15.06509,6.38992c3.20512,1.53679 6.59949,2.61251 8.76312,5.37677c1.12568,1.43819 1.53634,3.23779 2.14843,4.90716c1.05971,2.89019 1.92588,3.62592 2.14919,6.7833c0.21235,3.00227 -0.70762,6.47782 -1.26817,9.42656c-0.59267,1.57734 -1.12996,3.17285 -1.59344,4.78463l-0.62991,1.59707c-0.85705,2.52379 -1.51082,11.20101 -6.26804,10.21875l-0.21827,-0.22729c-2.12857,-0.4395 -3.90001,-4.6757 -5.46016,-6.04719c-0.81259,-0.71433 -1.51012,-1.54692 -2.06599,-2.43788c-0.51962,3.34333 -5.92388,8.80794 -9.26007,8.2315c-2.19688,-0.37958 -7.30573,-4.2677 -8.83372,-5.90521c-0.87099,-0.93343 -1.01145,-2.40279 -1.57861,-3.50879c-0.88794,3.28277 -4.82775,5.35364 -8.14036,5.97525c-4.46993,0.25574 -7.07477,1.71527 -9.90938,-1.66894c-0.51309,-0.61258 -1.13993,-3.67497 -1.54851,-4.42093c-0.38171,0.72407 -0.871,1.40661 -1.38331,2.06143c-1.06245,1.358 -5.53996,6.49786 -7.53097,6.95358c-1.7868,0.40897 -4.53321,-0.14044 -6.95629,-1.13101c-0.20162,0.08106 -0.42182,0.12567 -0.65243,0.12567z" fill="#ff7614" stroke="none" stroke-width="0.5"/><path d="M227.80112,141.1686c-0.00202,-0.00067 -0.00403,-0.00134 -0.00606,-0.00202c-2.37171,-0.79057 -1.58114,-3.16228 -1.58114,-3.16228l1.62384,-2.70113c1.42403,-0.66857 2.69949,-1.96365 4.2721,-2.00571c4.85137,-0.12974 9.04672,6.82287 4.33909,10.33101c-2.56904,1.91446 -7.19159,0.34019 -8.64783,-2.45988z" fill="#000000" stroke="none" stroke-width="0.5"/><path d="M265.32628,134.46606c0.90384,0.51776 1.61882,1.19061 1.94726,1.96676c0.12642,0.29875 0.2243,0.59903 0.29537,0.89842c0.69221,0.55749 1.19211,1.22173 1.23349,2.05822c0.16841,3.40386 -7.44783,5.37368 -9.35888,4.53918c-4.68657,-2.0465 -4.96314,-6.84139 -1.14742,-9.80091c0.86831,-0.67346 2.20937,-0.88353 3.60041,-0.74094c0.02481,-0.01397 0.0494,-0.02814 0.07378,-0.04252c0,0 2.23607,-1.11804 3.35411,1.11803c0.00063,0.00125 0.00126,0.00252 0.00188,0.00377z" fill="#000000" stroke="none" stroke-width="0.5"/><path d="M283.77403,172.21316c-2.17564,-0.55859 -2.02522,-2.93779 -3.61987,-4.68088c-0.83056,-0.90787 -2.12615,-3.48093 -2.69432,-4.6133c-0.53111,4.24922 -5.65546,8.77232 -9.06542,8.03969c-2.24546,-0.48244 -6.61481,-1.48204 -8.17659,-3.56324c-0.89025,-1.18635 -2.51877,-3.17535 -3.09847,-4.58103c-0.90757,4.17226 -6.18642,4.39853 -9.57228,5.18857c-4.56878,0.32504 -6.33887,2.62965 -9.23616,-1.67152c-0.52444,-0.77856 -0.07867,-2.65547 -0.49627,-3.60355c-0.39015,0.92027 -2.19983,2.66078 -2.72347,3.49303c-1.08595,1.72596 -4.30946,3.99007 -6.3445,4.56927c-5.02667,1.43063 -8.39294,-2.90196 -12.5722,-5.14411c0,0 0.45821,-1.64255 0.04964,-1.96528c-1.0779,-0.15678 -3.50023,-1.43548 -3.50023,-1.43548c-0.37678,-0.5909 -4.75022,-5.19445 -5.21475,-6.24286c-4.38028,-9.88601 -4.87483,-26.40677 3.76829,-33.20041c3.95131,-3.10579 8.97382,-3.37331 13.57682,-4.19123c5.99405,-1.06511 11.99591,-2.08092 18.04244,-2.7041c7.47326,-1.42943 16.26531,-2.34245 23.78307,-0.74336c4.97604,1.05844 10.07946,3.74925 14.50589,6.38833c3.276,1.95319 6.74543,3.32039 8.9569,6.83363c1.15058,1.82788 1.57031,4.11507 2.19594,6.23677c1.08315,3.67329 1.96847,4.60838 2.19672,8.62126c0.21704,3.81575 -0.72327,8.23302 -1.29622,11.98074c-0.60577,2.00473 -1.15495,4.03257 -1.62868,6.08106l-0.64384,2.0298c-0.876,3.20762 -1.86391,10.01011 -6.72633,8.76171z" fill="none" stroke="#791d0a" stroke-width="2"/><path d="M242.99981,121.72551c-0.14872,-0.22725 -0.21934,-0.39612 -0.21934,-0.39612c-2.12417,-5.07954 -4.05171,-10.13507 -6.77856,-14.91182c-0.85699,-1.50123 -3.30813,-2.97849 -2.53447,-4.5243c1.09945,-2.19674 9.05554,-3.74809 11.41276,-4.0505c1.87619,-0.2407 3.91368,-1.07997 5.66323,-0.36086c3.63512,1.49413 3.87167,5.39952 4.84651,8.38342c1.95976,5.99864 4.03941,12.51353 -1.92252,17.05836c-1.00077,0.76289 -5.28367,1.23725 -6.52683,1.41618l-1.91535,-0.23772c0,0 -2.06533,-0.41307 -2.02543,-2.37663z" fill="#0e3c00" stroke="#081b00" stroke-width="2"/><path d="M245.39732,100.144c1.53293,-0.19666 3.19765,-0.88238 4.62711,-0.29483c2.97005,1.22077 3.16332,4.41164 3.95981,6.84962c1.49019,4.56132 3.06521,9.48796 -0.65007,13.14246c-3.11563,-6.54901 -6.60168,-12.93887 -10.04803,-19.33479c0.88059,-0.17813 1.63545,-0.30142 2.11118,-0.36245z" fill="#165e00" stroke="none" stroke-width="0.5"/><path d="M228.41787,176.39456c0.23795,-0.45427 0.50524,-0.8603 0.96622,-0.9477c4.09853,-0.77708 4.77465,4.34971 2.16671,5.95146c-2.94715,1.81009 -5.79162,-1.82848 -3.85316,-4.54336c0.17109,-0.23962 0.43075,-0.36864 0.72023,-0.4604z" fill="#010102" stroke="none" stroke-width="0.5"/><path d="M266.93697,175.28237c1.93845,2.71489 -0.90602,6.35344 -3.85316,4.54336c-2.60794,-1.60175 -1.93182,-6.72854 2.16671,-5.95146c0.46099,0.0874 0.72827,0.49343 0.96622,0.94771c0.28948,0.09176 0.54913,0.22077 0.72023,0.46039z" data-paper-data="{&quot;index&quot;:null}" fill="#010102" stroke="none" stroke-width="0.5"/><path d="M234.8336,186.70002c0.72111,0.41206 1.28504,1.02456 1.74981,1.77583c2.53478,4.09727 2.12026,12.32214 8.16963,14.67214c1.59027,0.61777 1.79962,0.50494 3.73302,0.54195c0.64684,0.01238 3.75661,0.04696 4.76209,-0.1006c5.74762,-0.84349 5.65945,-6.45859 7.50072,-10.91194c0.29354,-0.70997 -0.22906,-1.94052 0.34494,-2.51452c2.23691,-2.23691 3.34572,0.30143 3.28125,2.22519c-0.10016,2.98875 -1.94065,7.09926 -3.17255,9.78687c-3.18362,6.94566 -13.53784,8.09884 -20.1512,3.25523c-2.28811,-1.6758 -4.12842,-5.15897 -5.06903,-7.88008c-0.4187,-1.21125 -4.24615,-9.0801 -2.65685,-9.98827z" fill="#010102" stroke="none" stroke-width="0.5"/><path d="M278.65277,178.08406c-1.49568,0.99712 -3.97804,-3.10486 -1.40843,-4.11973c3.21387,-1.26933 5.65904,3.21195 2.02792,4.11973z" fill-opacity="0.57258" fill="#ff7614" stroke="none" stroke-width="0.5"/></g></g></svg>