<svg version="1.1" xmlns="http://www.w3.org/2000/svg" xmlns:xlink="http://www.w3.org/1999/xlink" width="111.1405" height="97.38691" viewBox="0,0,111.1405,97.38691"><defs><linearGradient x1="240.10268" y1="137.2538" x2="240.10268" y2="222.15001" gradientUnits="userSpaceOnUse" id="color-1"><stop offset="0" stop-color="#8e1b00"/><stop offset="1" stop-color="#8f0000"/></linearGradient></defs><g transform="translate(-187.79971,-128.65373)"><g data-paper-data="{&quot;isPaintingLayer&quot;:true}" fill-rule="nonzero" stroke-linecap="butt" stroke-linejoin="miter" stroke-miterlimit="10" stroke-dasharray="" stroke-dashoffset="0" style="mix-blend-mode: normal"><path d="M296.88455,217.26243c-1.81142,1.91659 -8.74439,3.03887 -10.44663,0.64014c-0.71339,-1.00528 -1.24531,-2.52612 -1.45687,-4.10116c-3.68532,-0.37047 -7.37375,-0.7157 -11.04757,-1.18484c-0.07659,-0.00816 -0.15201,-0.01971 -0.2261,-0.03445c-0.48037,-0.08626 -0.78617,-0.2336 -1.00308,-0.44649c-0.68419,-0.51081 -1.08897,-1.35921 -0.99197,-2.2698c0.14353,-1.34751 1.33254,-2.33041 2.67459,-2.22809c0.02533,0.00192 0.05071,0.00424 0.07615,0.00696v0c3.76497,0.32084 7.51337,0.81252 11.27132,1.20781c0.07058,-0.10835 0.1459,-0.21199 0.22611,-0.31045c5.61442,-6.89204 17.3716,0.35622 11.26887,8.44195z" data-paper-data="{&quot;index&quot;:null}" fill="#000000" stroke="none" stroke-width="0.5"/><path d="M191.35235,224.72689c-7.31946,-7.00342 3.12444,-16.04188 9.77063,-10.13848c0.09495,0.08434 0.18591,0.17457 0.27293,0.27021c3.64606,-0.99231 7.26725,-2.07824 10.93217,-2.9982v0c0.02468,-0.00675 0.04936,-0.01311 0.07406,-0.01906c1.30832,-0.31603 2.63944,0.46366 2.99703,1.77076c0.24165,0.88329 -0.02196,1.78557 -0.61546,2.39942c-0.17999,0.2449 -0.45825,0.43933 -0.91858,0.60145c-0.07077,0.02642 -0.14336,0.0499 -0.21766,0.07022c-3.55118,1.05174 -7.13664,1.9835 -10.71499,2.93968c0.04353,1.58859 -0.23782,3.175 -0.78092,4.2816c-1.29591,2.64048 -8.31912,2.64357 -10.41423,1.04199z" fill="#000000" stroke="none" stroke-width="0.5"/><path d="M193.40063,152.99774c-0.26975,-2.4566 -0.16237,-4.80773 2.54853,-6.79107c0.81785,-0.59835 1.95053,-0.82152 3.0447,-1.09058c0.52253,0.85328 1.29381,1.53773 2.21295,1.95244c0.37848,0.17076 0.78203,0.29579 1.2036,0.36804c0.64785,0.18061 1.27286,0.34514 1.62873,0.50447c4.61678,2.06709 9.43061,3.03083 14.43752,4.17149c14.70482,3.34999 30.16559,3.12562 44.75459,-0.78099c3.21038,-0.85967 8.07871,-0.9014 10.78575,-2.62407c0.21262,-0.1353 0.40838,-0.27656 0.58804,-0.42312c2.6112,4.31369 3.29566,12.06345 6.66611,14.57237c2.40042,1.78683 4.00644,4.12869 6.05345,6.16648c2.08845,5.47278 4.73336,12.08273 4.43881,17.89095c-0.34283,6.76037 -4.55192,13.33777 -9.29424,18.77301c-3.767,4.31741 -7.13365,8.51173 -13.57172,10.66907c-4.38641,1.46984 -9.30354,1.74209 -13.95788,2.31613c-5.52958,0.53866 -10.16919,2.08971 -15.52182,2.98934c-8.6041,1.44612 -19.07144,-0.37876 -25.94213,-4.69495c-3.37265,-2.11871 -7.05198,-5.00112 -8.19929,-8.36609c-1.08053,-3.16912 0.59816,-7.64011 2.06254,-10.52468c0.91085,-1.79423 1.28329,-3.91637 3.26324,-5.00947c-1.15017,0.31148 -2.7269,-0.03557 -3.7713,-0.52673c-4.16228,-1.95747 -7.34824,-5.96349 -9.98252,-9.06243c-3.0667,-3.60764 -6.7006,-8.32255 -7.84323,-12.60218c-1.5496,-5.80392 -0.0042,-12.97319 4.39557,-17.87745z" fill="url(#color-1)" stroke="none" stroke-width="0"/><path d="M202.93394,147.69524c0.03796,-0.02777 0.0767,-0.05462 0.11618,-0.08058c0.39998,0.11318 0.75346,0.22092 0.98902,0.32639c4.61678,2.06709 9.43061,3.03083 14.43752,4.17149c14.70482,3.34999 30.16559,3.12562 44.75459,-0.78099c2.77455,-0.74296 6.78744,-0.87499 9.5733,-2.00916c2.23577,3.5853 3.76055,8.83783 6.41331,10.8125c1.06667,0.79401 1.36049,2.24061 1.63192,3.70058c0.25853,1.39058 0.49676,2.79331 1.36316,3.6558c1.81198,4.74829 4.10675,10.48319 3.85119,15.52251c-0.29745,5.86542 -3.94933,11.5721 -8.06385,16.28781c-3.26832,3.74586 -6.18929,7.38493 -11.77507,9.25669c-3.80573,1.27526 -8.07192,1.51147 -12.11011,2.00952c-4.79756,0.46735 -8.82298,1.81307 -13.46701,2.59361c-7.46507,1.25468 -16.54673,-0.32862 -22.50787,-4.07343c-2.92617,-1.83823 -6.11843,-4.33906 -7.11385,-7.25857c-0.93749,-2.74958 0.51897,-6.6287 1.7895,-9.13141c0.79027,-1.55671 1.11341,-3.39791 2.83125,-4.34631c-0.99791,0.27024 -2.36591,-0.03086 -3.27205,-0.45701c-3.61127,-1.69833 -6.37547,-5.17403 -8.66102,-7.86273c-2.66073,-3.13005 -5.81356,-7.22079 -6.80493,-10.93387c-1.34446,-5.03558 -0.00364,-11.25577 3.81367,-15.5108c-0.23404,-2.13138 -0.14088,-4.17127 2.21115,-5.89205z" fill="#b62100" stroke="none" stroke-width="0"/><path d="M274.34416,148.48512c2.65722,4.29487 3.32743,12.13651 6.72165,14.66312c2.40042,1.78683 4.00644,4.12869 6.05345,6.16648c2.08845,5.47278 4.73336,12.08273 4.43881,17.89095c-0.34283,6.76037 -4.55192,13.33777 -9.29424,18.77301c-3.767,4.31741 -7.13365,8.51173 -13.57172,10.66907c-4.38641,1.46984 -9.30354,1.74209 -13.95788,2.31613c-5.52958,0.53866 -10.16919,2.08972 -15.52182,2.98935c-8.6041,1.44612 -19.07144,-0.37877 -25.94213,-4.69496c-3.37265,-2.11871 -7.05198,-5.00111 -8.19929,-8.36608c-1.08053,-3.16912 0.59816,-7.64012 2.06254,-10.52469c0.91085,-1.79423 4.15107,-5.34302 3.64299,-5.38676c-0.82785,-0.07128 -3.50385,0.15493 -4.15105,-0.14943c-4.16228,-1.95747 -7.34824,-5.96349 -9.98252,-9.06243c-3.0667,-3.60764 -6.7006,-8.32254 -7.84323,-12.60217c-1.5496,-5.80392 -0.0042,-12.9732 4.39557,-17.87746c-0.26975,-2.4566 -0.16237,-4.80772 2.54853,-6.79106c0.90258,-0.66035 2.18864,-0.86373 3.38318,-1.17616c0,0 11.43022,-10.72256 20.68534,-13.09531c9.25512,-2.37275 20.21463,-4.11978 32.35042,-0.50156c12.13578,3.61823 22.18141,16.75996 22.18141,16.75996z" fill="none" stroke="#341c00" stroke-width="2"/><path d="M220.96766,159.47623c0.23795,-0.45427 0.50524,-0.8603 0.96622,-0.9477c4.09853,-0.77708 4.77465,4.34971 2.16671,5.95146c-2.94715,1.81009 -5.79162,-1.82848 -3.85316,-4.54336c0.17109,-0.23962 0.43075,-0.36864 0.72023,-0.4604z" fill="#010102" stroke="none" stroke-width="0.5"/><path d="M259.48676,158.36404c1.93845,2.71489 -0.90602,6.35344 -3.85316,4.54336c-2.60794,-1.60175 -1.93182,-6.72854 2.16671,-5.95146c0.46099,0.0874 0.72827,0.49343 0.96622,0.94771c0.28948,0.09176 0.54913,0.22077 0.72023,0.46039z" data-paper-data="{&quot;index&quot;:null}" fill="#010102" stroke="none" stroke-width="0.5"/><path d="M227.38339,169.78169c0.72111,0.41206 1.28504,1.02456 1.74981,1.77583c2.53478,4.09727 2.12026,12.32214 8.16963,14.67214c1.59027,0.61777 1.79962,0.50494 3.73302,0.54195c0.64684,0.01238 3.75661,0.04696 4.76209,-0.1006c5.74762,-0.84349 5.65945,-6.45859 7.50072,-10.91194c0.29354,-0.70997 -0.22906,-1.94052 0.34494,-2.51452c2.23691,-2.23691 3.34572,0.30143 3.28125,2.22519c-0.10016,2.98875 -1.94065,7.09926 -3.17255,9.78687c-3.18362,6.94566 -13.53784,8.09884 -20.1512,3.25523c-2.28811,-1.6758 -4.12842,-5.15897 -5.06903,-7.88008c-0.4187,-1.21125 -4.24615,-9.0801 -2.65685,-9.98827z" fill="#010102" stroke="none" stroke-width="0.5"/><path d="M274.57937,148.21877c2.65722,4.29487 3.32743,12.13651 6.72165,14.66312c2.40042,1.78683 4.00644,4.12869 6.05345,6.16648c2.08845,5.47278 4.73336,12.08273 4.43881,17.89095c-0.34283,6.76037 -4.55192,13.33777 -9.29424,18.77301c-3.767,4.31741 -7.13365,8.51173 -13.57172,10.66907c-4.38641,1.46984 -9.30354,1.74209 -13.95788,2.31613c-5.52958,0.53866 -10.16919,2.08972 -15.52182,2.98935c-8.6041,1.44612 -19.07144,-0.37877 -25.94213,-4.69496c-3.37265,-2.11871 -7.05198,-5.00111 -8.19929,-8.36608c-1.08053,-3.16912 0.59816,-7.64012 2.06254,-10.52469c0.91085,-1.79423 4.15107,-5.34302 3.64299,-5.38676c-0.82785,-0.07128 -3.50385,0.15493 -4.15105,-0.14943c-4.16228,-1.95747 -7.34824,-5.96349 -9.98252,-9.06243c-3.0667,-3.60764 -6.7006,-8.32254 -7.84323,-12.60217c-1.5496,-5.80392 -0.0042,-12.9732 4.39557,-17.87746c-0.26975,-2.4566 -0.16237,-4.80772 2.54853,-6.79106c0.90258,-0.66035 2.18864,-0.86373 3.38318,-1.17616c0,0 14.08568,5.54214 23.4439,7.46852c6.74734,1.38893 14.5299,3.82936 27.08407,1.75545c12.83507,-2.12031 24.68919,-6.06088 24.68919,-6.06088z" fill="none" stroke="#341c00" stroke-width="2"/></g></g></svg>