<svg version="1.1" xmlns="http://www.w3.org/2000/svg" xmlns:xlink="http://www.w3.org/1999/xlink" width="131.19653" height="151.88512" viewBox="0,0,131.19653,151.88512"><defs><linearGradient x1="241.56161" y1="108.59266" x2="241.56161" y2="227.07434" gradientUnits="userSpaceOnUse" id="color-1"><stop offset="0" stop-color="#ffffff"/><stop offset="1" stop-color="#dedede"/></linearGradient></defs><g transform="translate(-174.64082,-103.82314)"><g data-paper-data="{&quot;isPaintingLayer&quot;:true}" fill-rule="nonzero" stroke-linecap="butt" stroke-linejoin="miter" stroke-miterlimit="10" stroke-dasharray="" stroke-dashoffset="0" style="mix-blend-mode: normal"><path d="M279.15625,253.74247c-2.63679,-2.00899 -4.96262,-10.52534 -2.191,-12.9724c1.16156,-1.02554 2.9917,-1.89289 4.93222,-2.36704c-0.02759,-4.65575 -0.08716,-9.31202 0.0101,-13.96652c0,-0.09683 0.00439,-0.19263 0.01295,-0.28721c0.04387,-0.61192 0.18731,-1.01376 0.42455,-1.31324c0.54739,-0.9232 1.55394,-1.5421 2.70504,-1.5421c1.70341,0 3.09028,1.35531 3.14108,3.04642c0.00096,0.03191 0.00144,0.06395 0.00144,0.09611v0c0.10023,4.74869 -0.01526,9.49943 -0.00902,14.24926c0.14482,0.07379 0.2844,0.15415 0.41815,0.24129c9.36212,6.10008 1.86762,21.76086 -9.05157,15.20935z" data-paper-data="{&quot;index&quot;:null}" fill="#000000" stroke="none" stroke-width="0.5"/><path d="M206.37811,253.698c-10.91918,6.5515 -18.41369,-9.10928 -9.05157,-15.20935c0.13375,-0.08715 0.27332,-0.16751 0.41815,-0.24129c0.00625,-4.74984 -0.10925,-9.50057 -0.00902,-14.24926v0c0,-0.03215 0.00048,-0.06419 0.00144,-0.09611c0.05079,-1.69111 1.43767,-3.04642 3.14108,-3.04642c1.15109,0 2.15764,0.6189 2.70504,1.5421c0.23724,0.29947 0.38067,0.70132 0.42455,1.31324c0.00856,0.09458 0.01295,0.19037 0.01295,0.28721c0.09727,4.6545 0.03769,9.31077 0.0101,13.96652c1.94053,0.47414 3.77066,1.34149 4.93222,2.36704c2.77162,2.44706 0.44578,10.96341 -2.191,12.9724z" fill="#000000" stroke="none" stroke-width="0.5"/><path d="M181.42418,129.61668c-0.33908,-3.95156 -0.2041,-7.73347 3.20352,-10.92376c1.37398,-1.28636 3.45486,-1.49469 5.1823,-2.24205c4.1613,-1.38028 8.53064,-2.5983 12.39198,-4.76311c2.67019,-1.49699 8.9272,-6.82302 11.92365,-7.33353c2.21359,-0.37714 4.36997,1.06283 6.59148,1.39019c5.58414,0.82291 12.03901,0.59543 17.39377,2.63645c1.71636,0.65421 3.04231,2.06122 4.60684,3.02358c10.43244,6.41723 20.4833,13.44199 30.56161,20.42162c6.03245,4.17771 13.31385,8.61495 18.59886,13.64926c3.01735,2.8742 5.03613,6.6412 7.60924,9.91909c2.6252,8.80324 5.94988,19.43565 5.57962,28.77847c-0.43094,10.87438 -5.7218,21.45446 -11.68294,30.1973c-4.73516,6.94476 -8.96706,13.69152 -17.05977,17.16172c-5.51375,2.36432 -11.69463,2.80223 -17.54517,3.72561c-6.95073,0.86645 -12.78276,3.36141 -19.51105,4.80851c-10.81542,2.32616 -23.97296,-0.60926 -32.60948,-7.55207c-4.23945,-3.40805 -8.8644,-8.04454 -10.30658,-13.45726c-1.35824,-5.09768 0.7519,-12.2895 2.59264,-16.92947c1.14495,-2.88611 1.6131,-6.29966 4.10192,-8.05796c-1.44577,0.50103 -3.42774,-0.05722 -4.74056,-0.84727c-5.23202,-3.14868 -9.2368,-9.59258 -12.54812,-14.57737c-3.85487,-5.80307 -8.42271,-13.38721 -9.85901,-20.27121c-1.94786,-9.33589 -0.00528,-20.86802 5.52527,-28.75676z" fill="#b8b4bd" stroke="none" stroke-width="0"/><path d="M190.62819,130.56501c-0.29419,-3.42844 -0.17709,-6.7097 2.77944,-9.47765c1.19208,-1.11607 2.9975,-1.29683 4.49626,-1.94525c3.61042,-1.19756 7.40135,-2.25433 10.75151,-4.13255c2.31671,-1.29882 7.7454,-5.91976 10.34517,-6.3627c1.92056,-0.32721 3.79146,0.92212 5.71889,1.20615c4.84492,0.71397 10.44526,0.5166 15.09115,2.28743c1.48914,0.5676 2.63956,1.78835 3.99698,2.62331c9.05138,5.56771 17.77169,11.66253 26.51581,17.71818c5.23385,3.62466 11.55134,7.47448 16.1367,11.84234c2.61791,2.4937 4.36943,5.76203 6.6019,8.60598c2.27767,7.63784 5.16222,16.86273 4.84098,24.96873c-0.3739,9.43482 -4.96434,18.61428 -10.13633,26.19973c-4.10831,6.02539 -7.77999,11.87902 -14.80136,14.88983c-4.78383,2.05132 -10.14647,2.43126 -15.22251,3.23241c-6.03057,0.75176 -11.09057,2.91641 -16.92815,4.17195c-9.38366,2.01821 -20.79938,-0.52861 -28.29259,-6.55231c-3.67822,-2.95688 -7.69092,-6.97959 -8.94217,-11.67576c-1.17843,-4.42283 0.65235,-10.66258 2.24941,-14.68832c0.99338,-2.50404 1.39957,-5.4657 3.5589,-6.99124c-1.25438,0.4347 -2.97397,-0.04964 -4.11299,-0.73511c-4.5394,-2.73186 -8.01402,-8.3227 -10.88698,-12.64759c-3.34456,-5.03485 -7.3077,-11.615 -8.55385,-17.58767c-1.69,-8.09999 -0.00458,-18.10548 4.79383,-24.9499z" fill="url(#color-1)" stroke="none" stroke-width="0"/><path d="M181.16607,130.08559c-0.33908,-3.95156 -0.2041,-7.73347 3.20352,-10.92376c1.37398,-1.28636 3.45486,-1.49469 5.1823,-2.24205c4.1613,-1.38028 8.53064,-2.5983 12.39198,-4.76311c2.67019,-1.49699 8.9272,-6.82302 11.92365,-7.33353c2.21359,-0.37714 4.36997,1.06283 6.59148,1.39019c5.58414,0.82291 12.03901,0.59543 17.39377,2.63645c1.71636,0.65421 3.04231,2.06122 4.60684,3.02358c10.43244,6.41723 20.4833,13.44199 30.56161,20.42162c6.03245,4.17771 13.31385,8.61495 18.59886,13.64926c3.01735,2.8742 5.03613,6.6412 7.60924,9.91909c2.6252,8.80324 5.94988,19.43565 5.57962,28.77847c-0.43094,10.87438 -5.7218,21.45446 -11.68294,30.1973c-4.73516,6.94476 -8.96706,13.69152 -17.05977,17.16172c-5.51375,2.36432 -11.69463,2.80223 -17.54517,3.72561c-6.95073,0.86645 -12.78276,3.36141 -19.51105,4.80851c-10.81542,2.32616 -23.97296,-0.60926 -32.60948,-7.55207c-4.23945,-3.40805 -8.8644,-8.04454 -10.30658,-13.45726c-1.35824,-5.09768 0.7519,-12.2895 2.59264,-16.92947c1.14495,-2.88611 5.21793,-8.59451 4.57927,-8.66487c-1.04062,-0.11465 -4.40437,0.24922 -5.21791,-0.24036c-5.23202,-3.14868 -9.2368,-9.59258 -12.54812,-14.57737c-3.85487,-5.80307 -8.42271,-13.38721 -9.85901,-20.27121c-1.94786,-9.33589 -0.00528,-20.86802 5.52527,-28.75676z" fill="none" stroke="#564f61" stroke-width="2"/><path d="M204.45608,161.11994c-0.21203,-1.11855 -0.20812,-2.29812 -0.02658,-3.49727c-0.50438,-3.7534 1.1649,-8.21527 3.21681,-11.21259c3.60796,-5.27033 12.91173,-7.05512 18.61277,-3.97599c3.33983,1.80383 2.84897,2.28562 4.60412,5.00662c1.80425,2.79712 2.82591,4.94861 3.28479,8.28838c-0.09787,1.62121 -0.14398,4.76256 -0.86367,6.23701c-2.85963,5.85865 -9.6272,6.61322 -15.26753,6.79492c-3.62996,0.11694 -9.16782,-0.18428 -11.85429,-3.36945c-0.98478,-1.16759 -1.51385,-2.64564 -1.70641,-4.27164z" fill="#010102" stroke="none" stroke-width="0.5"/><path d="M274.42114,164.50553c-2.68648,3.18517 -8.22435,3.48638 -11.85429,3.36945c-5.64032,-0.1817 -12.4079,-0.93628 -15.26753,-6.79492c-0.71969,-1.47446 -0.76581,-4.6158 -0.86367,-6.237c0.45888,-3.3398 1.48055,-5.49128 3.28479,-8.2884c1.75514,-2.721 1.26428,-3.20278 4.60412,-5.00661c5.70105,-3.07914 15.00483,-1.29434 18.61277,3.97599c2.0519,2.99732 3.72121,7.45919 3.21681,11.21261c0.18154,1.19915 0.18543,2.37871 -0.02659,3.49726c-0.19256,1.626 -0.72164,3.10406 -1.70641,4.27164z" data-paper-data="{&quot;index&quot;:null}" fill="#010102" stroke="none" stroke-width="0.5"/><path d="M240.76716,182.42511c3.67318,-0.48206 7.28464,-0.04018 11.09668,1.97597c1.48646,1.65842 3.58449,3.49225 3.90949,5.91654c0.12224,0.91194 0.05653,1.87253 -0.15948,2.84592c0.91587,3.68957 -1.50073,8.7454 -4.27687,10.70707c-3.23217,2.28391 -7.65209,3.10971 -11.92446,2.61928c-5.00869,-0.02151 -10.05672,-1.85886 -13.0047,-5.5768c-6.85331,-8.64327 0.52871,-15.49364 9.15963,-17.6904c0.31539,-0.20468 0.62564,-0.38564 0.92745,-0.54037c1.34778,-0.691 2.81557,-0.58823 4.27227,-0.2572z" fill="#010102" stroke="none" stroke-width="0.5"/></g></g></svg>