<svg version="1.1" xmlns="http://www.w3.org/2000/svg" xmlns:xlink="http://www.w3.org/1999/xlink" width="104.54135" height="130.63543" viewBox="0,0,104.54135,130.63543"><g transform="translate(-187.30566,-116.18552)"><g data-paper-data="{&quot;isPaintingLayer&quot;:true}" fill-rule="nonzero" stroke-linecap="butt" stroke-linejoin="miter" stroke-miterlimit="10" stroke-dasharray="" stroke-dashoffset="0" style="mix-blend-mode: normal"><path d="M192.89582,136.86378c-0.26912,-3.13629 -0.16199,-6.13794 2.54259,-8.67003c1.09051,-1.02096 2.74207,-1.18631 4.11311,-1.77948c3.30276,-1.09551 6.77064,-2.06223 9.83533,-3.78041c2.11929,-1.18814 7.08539,-5.41533 9.46362,-5.82051c1.75689,-0.29933 3.46838,0.84355 5.23156,1.10337c4.43205,0.65313 9.55518,0.47258 13.80518,2.09251c1.36225,0.51924 2.41464,1.63596 3.65638,2.39977c8.28007,5.09326 16.25729,10.66871 24.25629,16.20833c4.78787,3.31579 10.567,6.83756 14.76164,10.83321c2.39483,2.28121 3.9971,5.27102 6.03934,7.87263c2.08358,6.987 4.72233,15.42578 4.42846,22.84104c-0.34203,8.63083 -4.54131,17.02808 -9.27257,23.96715c-3.75823,5.51195 -7.11702,10.86675 -13.54008,13.621c-4.37618,1.87653 -9.28185,2.22409 -13.92534,2.95696c-5.51669,0.68769 -10.14549,2.6679 -15.48563,3.81644c-8.58404,1.84624 -19.02698,-0.48356 -25.88166,-5.99397c-3.36479,-2.70492 -7.03554,-6.38483 -8.18018,-10.68083c-1.07801,-4.04595 0.59677,-9.75399 2.05774,-13.43667c0.90873,-2.29066 1.28029,-4.99995 3.25563,-6.39548c-1.14749,0.39766 -2.72055,-0.04541 -3.76251,-0.67247c-4.15258,-2.49906 -7.33111,-7.61349 -9.95926,-11.56984c-3.05955,-4.60581 -6.68498,-10.62523 -7.82495,-16.08896c-1.54599,-7.40976 -0.00419,-16.56264 4.38532,-22.82381z" fill="#b8b4bd" stroke="none" stroke-width="0"/><path d="M200.53066,142.6195c-0.23301,-2.71548 -0.14026,-5.31437 2.20143,-7.50672c0.94419,-0.88398 2.37415,-1.02714 3.56123,-1.54072c2.85961,-0.94852 5.86218,-1.78553 8.51567,-3.27317c1.83493,-1.02872 6.1347,-4.68873 8.19383,-5.03954c1.52116,-0.25916 3.003,0.73036 4.52961,0.95532c3.83738,0.56549 8.27311,0.40918 11.95286,1.81175c1.17947,0.44956 2.09065,1.41645 3.16578,2.07778c2.84136,1.74778 5.64153,3.56115 8.41801,5.41217c-4.81679,-0.15931 -10.01505,0.55097 -10.35903,3.99077c-0.67329,6.73291 11.8082,5.12707 15.351,5.18204c0.77767,0.01206 1.50515,0.27684 2.23317,0.5426c0.60974,0.33859 1.31006,0.53388 2.05542,0.54036c0.28975,0.02007 0.58617,0.00758 0.89193,-0.05074c0.18544,-0.03537 0.3572,-0.09363 0.51743,-0.17124c0.65152,-0.31558 1.112,-0.95113 1.52305,-1.66914c0.12356,0.0856 0.24714,0.1712 0.37072,0.25678c3.18698,2.20711 6.88124,4.51963 10.0694,7.04295c-1.05096,0.01035 -2.10314,0.04116 -3.15203,0.03406c-2.8215,-0.0191 -17.30623,-1.7788 -20.34543,0.45597c-3.37028,2.47821 -2.84663,6.65148 1.69009,8.209c1.59755,0.54846 5.07212,-0.72188 6.9331,-0.41192c3.21319,0.53518 6.51349,0.15223 9.77089,0.16839c3.18874,0.01582 7.32564,1.16724 10.49415,0.30429c0.18225,-0.04963 0.34959,-0.12122 0.50444,-0.2112c0.36998,-0.21496 0.66871,-0.5349 0.92908,-0.91127c0.36132,0.51468 0.7297,1.02323 1.11629,1.5157c0.66362,2.22535 1.39228,4.62079 2.03567,7.07965c-3.43637,-0.06117 -6.87567,0.03337 -10.31304,0.04818c-4.67541,0.02015 -9.4283,1.53505 -13.96238,2.38287c-1.64356,0.30733 -4.11688,0.60692 -5.03953,2.33786c-0.24963,0.46831 -0.14096,1.83179 -0.13469,2.42437c0.05293,5.00391 5.60961,4.299 9.25958,3.35028c3.19903,-0.83151 6.74854,-1.81075 10.09243,-1.85733c3.86116,-0.05378 8.1238,1.17277 11.79231,0.32939c0.11028,1.24866 0.15149,2.48035 0.10391,3.68104c-0.03238,0.81714 -0.1047,1.63188 -0.21319,2.4428c-1.93311,-0.02224 -4.02922,0.16073 -4.78689,0.0892c-7.06172,-0.66659 -15.46251,-2.14447 -22.49873,-1.26634c-2.07317,0.25873 -7.44176,0.58084 -7.44176,3.99005c0,4.7317 1.27251,4.68484 5.34453,5.34453c1.04418,0.16916 2.0274,-0.70241 3.08426,-0.74674c2.19834,-0.0922 4.40055,-0.0068 6.60081,0c5.62165,0.01738 11.4508,1.2196 17.15659,1.46304c-1.33841,3.12761 -3.04776,6.1041 -4.86881,8.83399c-1.49554,-0.31363 -3.92827,-0.38127 -4.5715,-0.4345c-5.93368,-0.49109 -11.01339,-2.75543 -17.24687,-2.2538c-2.27441,0.18303 -4.31903,1.2815 -4.31903,4.31903c0,5.71532 5.75604,3.85287 8.84444,4.36726c2.5002,0.41642 6.8931,1.76637 10.9383,2.40848c-1.60994,1.61688 -3.46283,2.99674 -5.77392,3.98774c-1.80142,0.77245 -3.70645,1.24568 -5.64146,1.59779l-0.77317,-1.35306c-0.27353,-0.47866 -3.37623,-0.88982 -4.22573,-1.15939c-3.28938,-1.04386 -13.54979,-2.68993 -13.54979,3.14861c0,1.09335 0.64374,2.10235 1.40003,2.97227c-0.87467,0.23806 -1.76266,0.46222 -2.67463,0.65836c-2.83885,0.61058 -5.91252,0.69364 -8.95819,0.2972c0.49388,-0.19839 0.93862,-0.43445 1.31967,-0.71464c3.35432,-2.46649 2.87693,-6.68666 -1.69009,-8.209c-0.17785,-0.05928 -3.85485,0.86521 -4.35808,0.91505c-3.33309,0.33019 -3.70639,0.32607 -8.17627,0.19497c-0.42599,-0.14056 -0.88132,-0.21663 -1.3544,-0.21663c-0.5996,0 -1.17067,0.12218 -1.68965,0.34302c-1.88462,-1.84029 -3.58158,-4.0075 -4.39306,-6.4132c6.0767,0.10855 12.15658,-0.07843 18.23436,-0.02218c4.67849,0.0433 9.99213,-1.76585 5.07157,-7.67053c-0.80452,-0.96543 -3.83257,-0.96497 -4.87566,-0.96754c-9.41951,-0.02317 -14.20964,-1.83201 -17.69561,-1.21682c0.27489,-0.86188 0.5699,-1.67111 0.85548,-2.39096c0.39847,-1.00446 0.67767,-2.10188 1.07836,-3.09742c3.76962,0.49224 7.57627,2.36021 11.28847,2.77907c1.33203,0.1503 3.66911,0.99454 4.89983,-0.10663c2.17829,-1.949 2.54355,-5.93968 0,-7.55831c-1.8805,-1.19668 -5.41767,-1.26169 -7.5241,-1.623c-4.04447,-0.69373 -11.87998,-4.81215 -14.91774,-0.96013c-0.8872,-1.11912 -1.71035,-2.30177 -2.48048,-3.44986c0.46846,-0.17338 0.89863,-0.42568 1.27439,-0.74077c1.80113,-0.65381 3.85463,-1.39025 4.55293,-1.4193c2.16338,-0.08999 12.61556,-0.15636 13.79606,-1.57296c0.92883,-1.1146 1.93986,-2.51422 1.80849,-3.95915c-0.52589,-5.78476 -6.84771,-3.50306 -10.22018,-3.27813c-4.61138,0.30755 -10.83141,-0.02498 -14.4809,2.97773c-0.46497,0.20919 -0.88624,0.49824 -1.24634,0.84969c-1.0036,-1.77925 -1.93169,-3.64124 -2.63861,-5.49197c1.44306,-0.03044 2.61439,-0.0929 2.83898,-0.09534c3.43191,-0.03721 9.25092,-0.80358 12.62436,-2.00838c1.19685,-0.42744 3.23937,-1.66987 4.48335,-1.67422c1.80705,-0.00633 3.61868,0.12837 5.42117,0c2.27441,-0.16198 4.31903,-1.32267 4.31903,-4.31903c0,-2.97945 -2.04461,-4.1657 -4.31903,-4.31903c-6.30768,-0.42523 -11.19402,1.8182 -17.12698,2.90323c-3.28573,0.6009 -6.48186,0.58772 -9.77183,0.67137c0.016,-1.31601 0.1262,-2.6475 0.32919,-3.96708c1.819,-0.39841 3.93183,-0.9589 4.35976,-1.03522c4.73394,-0.84431 9.36944,-1.82461 14.06298,-2.81404c3.43734,-0.72461 7.27964,-0.45422 10.65248,-1.48706c2.18978,-0.67056 4.04984,-1.86995 3.47675,-5.02197c-0.94677,-5.20723 -6.95247,-3.15422 -10.16888,-2.88698c-3.36694,0.27975 -5.8304,1.10314 -8.96286,1.84158c-2.44254,0.57579 -6.06784,0.72308 -9.59374,1.24464c0.04798,-0.07042 0.09636,-0.14042 0.14515,-0.21002z" fill="#ffffff" stroke="none" stroke-width="0"/><path d="M192.69096,137.23594c-0.26912,-3.13629 -0.16199,-6.13794 2.54259,-8.67003c1.09051,-1.02096 2.74207,-1.18631 4.11311,-1.77948c3.30276,-1.09551 6.77064,-2.06223 9.83533,-3.78041c2.11929,-1.18814 7.08539,-5.41533 9.46362,-5.82051c1.75689,-0.29933 3.46838,0.84355 5.23156,1.10337c4.43205,0.65313 9.55518,0.47258 13.80518,2.09251c1.36225,0.51924 2.41464,1.63596 3.65638,2.39977c8.28007,5.09326 16.25729,10.66871 24.25629,16.20833c4.78787,3.31579 10.567,6.83756 14.76164,10.83321c2.39483,2.28121 3.9971,5.27102 6.03934,7.87263c2.08358,6.987 4.72233,15.42578 4.42846,22.84104c-0.34203,8.63083 -4.54131,17.02808 -9.27257,23.96715c-3.75823,5.51195 -7.11702,10.86675 -13.54008,13.621c-4.37618,1.87653 -9.28185,2.22409 -13.92534,2.95696c-5.51669,0.68769 -10.14549,2.6679 -15.48563,3.81644c-8.58404,1.84624 -19.02698,-0.48356 -25.88166,-5.99397c-3.36479,-2.70492 -7.03554,-6.38483 -8.18018,-10.68083c-1.07801,-4.04595 0.59677,-9.75399 2.05774,-13.43667c0.90873,-2.29066 4.14139,-6.82133 3.6345,-6.87718c-0.82592,-0.091 -3.49568,0.1978 -4.14138,-0.19077c-4.15258,-2.49906 -7.33111,-7.61349 -9.95926,-11.56984c-3.05955,-4.60581 -6.68498,-10.62523 -7.82495,-16.08896c-1.54599,-7.40976 -0.00419,-16.56264 4.38532,-22.82381z" fill="none" stroke="#564f61" stroke-width="2"/><path d="M271.15038,232.32378c-2.09767,-1.59823 -3.94796,-8.37332 -1.74303,-10.32006c0.92407,-0.81586 2.38001,-1.50587 3.92378,-1.88307c-0.02195,-3.70383 -0.06934,-7.40808 0.00804,-11.11092c0,-0.07703 0.00349,-0.15324 0.0103,-0.22848c0.0349,-0.4868 0.14901,-0.80649 0.33774,-1.04473c0.43547,-0.73444 1.23622,-1.2268 2.15196,-1.2268c1.35513,0 2.45844,1.0782 2.49885,2.42354c0.00077,0.02539 0.00115,0.05088 0.00115,0.07646v0c0.07974,3.77777 -0.01214,7.55717 -0.00717,11.33585c0.11521,0.0587 0.22625,0.12263 0.33265,0.19196c7.44794,4.85285 1.48576,17.31162 -7.20088,12.09964z" data-paper-data="{&quot;index&quot;:null}" fill="#000000" stroke="none" stroke-width="0.5"/><path d="M213.75402,232.53918c-8.68664,5.21198 -14.64882,-7.24679 -7.20088,-12.09964c0.1064,-0.06933 0.21744,-0.13326 0.33265,-0.19196c0.00497,-3.77868 -0.08691,-7.55808 -0.00717,-11.33585v0c0,-0.02558 0.00038,-0.05107 0.00115,-0.07646c0.04041,-1.34534 1.14372,-2.42354 2.49885,-2.42354c0.91574,0 1.71649,0.49236 2.15196,1.2268c0.18873,0.23824 0.30284,0.55793 0.33774,1.04473c0.00681,0.07524 0.0103,0.15145 0.0103,0.22848c0.07738,3.70284 0.02999,7.40709 0.00804,11.11092c1.54377,0.3772 2.99971,1.06721 3.92378,1.88307c2.20493,1.94674 0.35464,8.72183 -1.74303,10.32006z" fill="#000000" stroke="none" stroke-width="0.5"/><path d="M232.11029,238.48378c-0.00113,-4.99043 -0.22648,-9.9577 -0.22648,-14.94773c0,0 0,-1.75 1.75,-1.75c1.75,0 1.75,1.75 1.75,1.75c0,5.59198 0.23024,11.16506 0.22648,16.75918c-0.00052,0.7693 0.0393,5.26567 -0.21955,5.47015c-1.23906,0.97882 -3.12836,0.44213 -4.70111,0.58288c-4.02118,0.35989 -9.80635,0.85674 -13.73287,-0.00596c-1.39913,-0.30741 -3.40278,-0.06481 -4.08905,-1.32223c-3.06312,-5.61241 6.55979,-4.66225 8.41282,-4.66304c3.56673,0.00173 7.30031,0.2652 10.83002,0.92671c-0.00051,-1.13693 -0.00022,-2.59778 -0.00026,-2.79997z" data-paper-data="{&quot;index&quot;:null}" fill="#000000" stroke="none" stroke-width="0.5"/><path d="M254.74987,239.91086c3.52972,-0.66151 7.26329,-0.92497 10.83002,-0.92671c1.85303,0.00078 11.47594,-0.94937 8.41282,4.66304c-0.68627,1.25742 -2.68992,1.01483 -4.08905,1.32223c-3.92652,0.8627 -9.71169,0.36585 -13.73287,0.00596c-1.57275,-0.14076 -3.46205,0.39593 -4.70111,-0.58289c-0.25885,-0.20449 -0.21903,-4.70084 -0.21955,-5.47015c-0.00376,-5.59412 0.22648,-11.1672 0.22648,-16.75918c0,0 0,-1.75 1.75,-1.75c1.75,0 1.75,1.75 1.75,1.75c0,4.99002 -0.22534,9.9573 -0.22648,14.94772c-0.00005,0.20219 0.00025,1.66304 -0.00026,2.79997z" fill="#000000" stroke="none" stroke-width="0.5"/></g></g></svg>