<svg version="1.1" xmlns="http://www.w3.org/2000/svg" xmlns:xlink="http://www.w3.org/1999/xlink" width="101.74018" height="129.79118" viewBox="0,0,101.74018,129.79118"><defs><linearGradient x1="245.09964" y1="120.39932" x2="245.09964" y2="225.82389" gradientUnits="userSpaceOnUse" id="color-1"><stop offset="0" stop-color="#8e1b00"/><stop offset="1" stop-color="#8f0000"/></linearGradient></defs><g transform="translate(-194.31448,-119.80952)"><g data-paper-data="{&quot;isPaintingLayer&quot;:true}" fill-rule="nonzero" stroke-linecap="butt" stroke-linejoin="miter" stroke-miterlimit="10" stroke-dasharray="" stroke-dashoffset="0" style="mix-blend-mode: normal"><path d="M274.30018,162.35638c-4.69267,2.00605 -6.39789,-0.58307 -10.26764,-2.70083c-1.01549,-0.55574 -3.88573,-1.46387 -5.06942,-1.85807c-3.94695,-1.30672 -7.46696,-2.91295 -11.26495,-4.50314c-2.71699,-1.13757 -5.81574,-2.12447 -8.52699,-3.61313c-0.23335,-0.06881 -0.41488,-0.18179 -0.55613,-0.31593c-1.11594,-0.65639 -2.15397,-1.40946 -3.05692,-2.30771c-2.45703,-2.44423 -3.36331,-5.5259 -4.90936,-8.52153c-1.49964,-2.9057 -2.51143,-5.39749 -2.24062,-8.67701c0,0 0.05693,-0.62627 0.49326,-1.05474c0.1714,-0.56384 0.66222,-0.90364 0.66222,-0.90364c4.03468,-2.7513 10.66924,-3.93784 15.5271,-2.96507c2.69123,0.5389 9.83328,-1.90826 12.56556,-1.8618c3.75991,0.06395 8.52375,-1.00612 12.17601,0.0595c1.00461,0.29311 4.12764,2.14605 4.9209,3.05045c0.44721,0.50987 0.4121,1.34545 0.88401,1.83254c0.81981,0.84616 2.10659,1.0573 3.1365,1.62944c6.16899,3.46343 1.07818,12.07288 1.07755,18.51954c-0.00046,4.71819 -0.36274,8.34903 -3.17146,12.24564l-0.68153,0.8546c0,0 -0.50661,0.63325 -1.24827,0.63261z" fill="#ffa6e0" stroke="#852471" stroke-width="2"/><path d="M275.22879,235.77578c-2.03561,-1.55095 -3.83116,-8.1256 -1.69146,-10.01474c0.89673,-0.79172 2.3096,-1.46132 3.8077,-1.82736c-0.0213,-3.59425 -0.06729,-7.18891 0.0078,-10.7822c0,-0.07475 0.00339,-0.14871 0.01,-0.22172c0.03387,-0.4724 0.1446,-0.78263 0.32775,-1.01382c0.42259,-0.71271 1.19965,-1.19051 2.08829,-1.19051c1.31504,0 2.38571,1.0463 2.42492,2.35184c0.00075,0.02464 0.00112,0.04937 0.00112,0.0742v0c0.07738,3.666 -0.01178,7.33359 -0.00696,11.00048c0.1118,0.05696 0.21956,0.119 0.32281,0.18628c7.22759,4.70928 1.4418,16.79946 -6.98784,11.74167z" data-paper-data="{&quot;index&quot;:null}" fill="#000000" stroke="none" stroke-width="0.5"/><path d="M219.04379,235.74145c-8.42965,5.05778 -14.21544,-7.03239 -6.98784,-11.74167c0.10325,-0.06728 0.21101,-0.12932 0.32281,-0.18628c0.00482,-3.66689 -0.08434,-7.33447 -0.00696,-11.00048v0c0,-0.02482 0.00037,-0.04956 0.00112,-0.0742c0.03921,-1.30554 1.10988,-2.35184 2.42492,-2.35184c0.88865,0 1.66571,0.47779 2.08829,1.19051c0.18315,0.23119 0.29388,0.54142 0.32775,1.01382c0.00661,0.07301 0.01,0.14697 0.01,0.22172c0.07509,3.59329 0.0291,7.18795 0.0078,10.7822c1.4981,0.36604 2.91096,1.03564 3.8077,1.82736c2.1397,1.88915 0.34415,8.4638 -1.69146,10.01474z" fill="#000000" stroke="none" stroke-width="0.5"/><g><path d="M199.77926,139.95024c-0.26177,-3.05062 -0.15757,-5.97027 2.47313,-8.43318c1.06071,-0.99307 2.66717,-1.15391 4.00075,-1.73087c3.21254,-1.06558 6.58568,-2.0059 9.56665,-3.67714c2.06139,-1.15569 6.89183,-5.26739 9.2051,-5.66151c1.7089,-0.29115 3.37363,0.82051 5.08864,1.07323c3.07817,0.45361 6.49905,0.4938 9.70876,1.0533c0.98738,5.21954 1.36439,10.51111 1.48594,15.85928c0.04316,1.89935 -0.35541,6.00123 1.66617,7.13185c2.9397,1.64411 9.05656,-2.33746 11.87463,-3.15821c1.46615,-0.427 3.02842,-0.53923 4.44448,-1.11083c0.14733,-0.05947 0.28631,-0.31579 0.39043,-0.55129c0.03928,-0.00195 0.07814,-0.00416 0.11657,-0.00665c-0.70622,4.07656 -3.2178,13.33991 3.21567,14.3389c2.17492,0.33772 8.41518,-2.91279 10.47959,-3.89288c2.24257,-1.06711 4.51623,-2.03138 6.81997,-2.90729c1.69504,1.25654 3.3088,2.55824 4.7344,3.91622c2.3294,2.21889 3.88791,5.12703 5.87436,7.65757c2.02666,6.79613 4.59332,15.00439 4.30749,22.21708c-0.33269,8.39506 -4.41725,16.56292 -9.01927,23.31243c-3.65555,5.36138 -6.9226,10.56991 -13.1702,13.24891c-4.25664,1.82526 -9.0283,2.16334 -13.54494,2.87618c-5.36599,0.66891 -9.86834,2.59502 -15.06261,3.71219c-8.34955,1.7958 -18.50721,-0.47035 -25.17463,-5.83022c-3.27287,-2.63103 -6.84335,-6.21041 -7.95671,-10.38905c-1.04856,-3.93542 0.58046,-9.48753 2.00152,-13.06961c0.8839,-2.22809 1.24532,-4.86336 3.1667,-6.22078c-1.11614,0.3868 -2.64622,-0.04417 -3.65973,-0.6541c-4.03914,-2.43079 -7.13084,-7.4055 -9.68719,-11.25378c-2.97597,-4.47999 -6.50236,-10.33498 -7.61119,-15.64945c-1.50376,-7.20734 -0.00408,-16.11018 4.26553,-22.20032z" fill="#1f8f00" stroke="none" stroke-width="0"/><path d="" fill="url(#color-1)" stroke="none" stroke-width="0"/><path d="M209.03054,133.36556c0.92029,-0.86161 2.31408,-1.00116 3.47113,-1.50174c2.78726,-0.92452 5.71386,-1.74035 8.3002,-3.19035c1.7885,-1.00269 5.97947,-4.57008 7.98651,-4.91203c1.48268,-0.25261 2.92702,0.71189 4.415,0.93115c2.25008,0.33158 4.71123,0.40855 7.09604,0.71488c0.63806,4.29828 0.90923,8.64307 1.00883,13.02587c0.04316,1.89935 -0.35541,6.00123 1.66617,7.13185c2.9397,1.64411 9.05656,-2.33746 11.87463,-3.15821c1.46615,-0.427 3.02842,-0.53923 4.44448,-1.11083c0.14733,-0.05947 0.28631,-0.31579 0.39043,-0.55129c0.03928,-0.00195 0.07814,-0.00416 0.11657,-0.00665c-0.70622,4.07656 -3.2178,13.33991 3.21567,14.3389c2.17492,0.33772 8.41518,-2.91279 10.47959,-3.89288c1.58121,-0.7524 3.17788,-1.45368 4.78964,-2.10891c0.91229,0.72436 1.78132,1.46655 2.58195,2.22921c2.02103,1.92515 3.37322,4.44831 5.0967,6.64385c1.75837,5.89645 3.98525,13.01809 3.73725,19.27595c-0.28865,7.28371 -3.83249,14.37029 -7.82528,20.22628c-3.17163,4.65163 -6.00618,9.17065 -11.42671,11.495c-3.69314,1.58363 -7.83311,1.87695 -11.75183,2.49543c-4.65562,0.58036 -8.56195,2.25148 -13.06859,3.22076c-7.24422,1.55807 -16.0572,-0.40809 -21.84198,-5.05841c-2.8396,-2.28273 -5.93742,-5.38827 -6.90339,-9.01373c-0.90975,-3.41444 0.50362,-8.23156 1.73656,-11.33944c0.76689,-1.93313 1.08047,-4.21954 2.74749,-5.39726c-0.96839,0.33559 -2.29591,-0.03832 -3.17525,-0.56751c-3.50443,-2.109 -6.18685,-6.42515 -8.40478,-9.76399c-2.58201,-3.88692 -5.64157,-8.96682 -6.60361,-13.57775c-1.30468,-6.25321 -0.00353,-13.97748 3.70084,-19.2614c-0.22712,-2.64677 -0.13671,-5.17991 2.14573,-7.31677z" fill="#31b500" stroke="none" stroke-width="0"/><path d="" fill="#b62100" stroke="none" stroke-width="0"/><path d="" fill="#b62100" stroke="none" stroke-width="0"/><path d="M279.86172,148.45088c1.78802,1.31463 3.49231,2.67844 4.98916,4.10428c2.3294,2.21889 3.88791,5.12703 5.87436,7.65757c2.02666,6.79613 4.59332,15.00439 4.30749,22.21708c-0.33269,8.39506 -4.41725,16.56292 -9.01927,23.31243c-3.65555,5.36138 -6.9226,10.56991 -13.1702,13.24891c-4.25664,1.82526 -9.0283,2.16334 -13.54494,2.87618c-5.36599,0.66891 -9.86834,2.59502 -15.06261,3.71219c-8.34955,1.7958 -18.50721,-0.47035 -25.17463,-5.83022c-3.27287,-2.63103 -6.84335,-6.21041 -7.95671,-10.38905c-1.04856,-3.93542 0.58046,-9.48753 2.00152,-13.06961c0.8839,-2.22809 4.02826,-6.63499 3.53521,-6.68931c-0.80336,-0.08851 -3.40019,0.19239 -4.02824,-0.18556c-4.03914,-2.43079 -7.13084,-7.4055 -9.68719,-11.25378c-2.97597,-4.47999 -6.50236,-10.33498 -7.61119,-15.64945c-1.50376,-7.20734 -0.00408,-16.11018 4.26553,-22.20032c-0.26177,-3.05062 -0.15757,-5.97027 2.47313,-8.43318c1.06071,-0.99307 2.66717,-1.15391 4.00075,-1.73087c3.21254,-1.06558 6.58568,-2.0059 9.56665,-3.67714c2.06139,-1.15569 6.89183,-5.26739 9.2051,-5.66151c1.7089,-0.29115 3.37363,0.82051 5.08864,1.07323c3.16651,0.46663 6.69569,0.49577 9.98458,1.10277" fill="none" stroke="#003f08" stroke-width="2"/></g><path d="M237.10035,241.51018c-0.0011,-4.84279 -0.21978,-9.6631 -0.21978,-14.5055c0,0 0,-1.69823 1.69823,-1.69823c1.69823,0 1.69823,1.69823 1.69823,1.69823c0,5.42654 0.22343,10.83474 0.21978,16.26336c-0.0005,0.74654 0.03814,5.10989 -0.21305,5.30832c-1.2024,0.94986 -3.03581,0.42905 -4.56203,0.56564c-3.90221,0.34924 -9.51623,0.83139 -13.32658,-0.00578c-1.35774,-0.29832 -3.30211,-0.06289 -3.96808,-1.28311c-2.9725,-5.44637 6.36572,-4.52432 8.16393,-4.52508c3.46121,0.00168 7.08433,0.25735 10.50961,0.89929c-0.00049,-1.10329 -0.00021,-2.52092 -0.00025,-2.71713z" data-paper-data="{&quot;index&quot;:null}" fill="#000000" stroke="none" stroke-width="0.5"/><path d="M259.3135,243.1384c3.42529,-0.64194 7.04841,-0.8976 10.50961,-0.89929c1.79821,0.00076 11.13643,-0.92128 8.16393,4.52508c-0.66597,1.22022 -2.61034,0.98481 -3.96808,1.28311c-3.81035,0.83718 -9.42437,0.35503 -13.32658,0.00578c-1.52622,-0.1366 -3.35963,0.38422 -4.56203,-0.56565c-0.25119,-0.19844 -0.21255,-4.56177 -0.21305,-5.30832c-0.00365,-5.42862 0.21978,-10.83682 0.21978,-16.26336c0,0 0,-1.69823 1.69823,-1.69823c1.69823,0 1.69823,1.69823 1.69823,1.69823c0,4.84239 -0.21867,9.66271 -0.21978,14.50549c-0.00005,0.19621 0.00024,1.61384 -0.00025,2.71713z" fill="#000000" stroke="none" stroke-width="0.5"/><path d="M226.53073,165.08343c0.23091,-0.44083 0.49029,-0.83485 0.93763,-0.91966c3.97728,-0.75409 4.63339,4.22102 2.10261,5.77539c-2.85996,1.75654 -5.62028,-1.77438 -3.73916,-4.40895c0.16603,-0.23253 0.41801,-0.35773 0.69892,-0.44678z" fill="#ffffff" stroke="none" stroke-width="0.5"/><path d="M263.91025,164.00414c1.8811,2.63457 -0.87922,6.16547 -3.73916,4.40895c-2.53078,-1.55436 -1.87467,-6.52948 2.10261,-5.77539c0.44735,0.08481 0.70672,0.47883 0.93763,0.91967c0.28092,0.08905 0.53288,0.21424 0.69892,0.44677z" data-paper-data="{&quot;index&quot;:null}" fill="#ffffff" stroke="none" stroke-width="0.5"/><path d="M232.75665,179.72042c0.69978,0.39987 1.24702,0.99425 1.69804,1.72329c2.45979,3.97605 2.05753,11.95759 7.92793,14.23807c1.54322,0.59949 1.74638,0.49 3.62258,0.52592c0.6277,0.01201 3.64547,0.04557 4.6212,-0.09762c5.57758,-0.81854 5.49202,-6.26751 7.27881,-10.58911c0.28486,-0.68897 -0.22228,-1.88311 0.33473,-2.44013c2.17073,-2.17073 3.24674,0.29251 3.18417,2.15936c-0.0972,2.90033 -1.88324,6.88923 -3.07869,9.49733c-3.08943,6.74017 -13.13732,7.85924 -19.55503,3.15892c-2.22042,-1.62622 -4.00628,-5.00634 -4.91906,-7.64695c-0.40631,-1.17542 -4.12053,-8.81147 -2.57825,-9.69277z" fill="#010102" stroke="none" stroke-width="0.5"/></g></g></svg>